<?xml version="1.0" standalone="no"?>
<!DOCTYPE svg PUBLIC "-//W3C//DTD SVG 20010904//EN" "http://www.w3.org/TR/2001/REC-SVG-20010904/DTD/svg10.dtd">
<!-- Created using Krita: http://krita.org -->
<svg xmlns="http://www.w3.org/2000/svg" 
    xmlns:xlink="http://www.w3.org/1999/xlink"
    xmlns:krita="http://krita.org/namespaces/svg/krita"
    xmlns:sodipodi="http://sodipodi.sourceforge.net/DTD/sodipodi-0.dtd"
    width="576pt"
    height="576pt"
    viewBox="0 0 576 576">
<defs/>
<rect id="shape0" fill="#535363" fill-rule="evenodd" width="576" height="576"/><g id="group0" transform="translate(94.819, 149.0675)" fill="none">
  <path id="shape01" fill="#53c81d" fill-rule="evenodd" stroke="#000000" stroke-opacity="0" stroke-width="0" stroke-linecap="square" stroke-linejoin="bevel" d="M285.139 277.865L285.091 277.807L284.949 277.637L284.717 277.36L284.4 276.98L284.002 276.502L283.528 275.932L282.98 275.273L282.364 274.532L281.685 273.712L280.945 272.818L280.149 271.856L279.302 270.83L278.408 269.745L277.471 268.606L276.495 267.417L275.485 266.184L274.445 264.912L273.378 263.605L272.29 262.267L271.184 260.905L270.065 259.522L268.936 258.124L267.803 256.715L266.67 255.301L265.539 253.885L264.417 252.474L263.307 251.071L265.417 250.457L267.483 249.821L269.507 249.162L271.489 248.483L273.429 247.785L275.326 247.067L277.182 246.333L278.997 245.582L280.771 244.816L282.504 244.037L284.196 243.244L285.849 242.439L287.461 241.624L289.034 240.8L290.567 239.966L292.061 239.126L293.516 238.279L294.933 237.427L296.311 236.571L297.651 235.713L298.954 234.852L300.219 233.991L301.446 233.13L302.637 232.271L303.791 231.414L304.909 230.561L305.99 229.713L307.035 228.871L308.045 228.036L309.02 227.209L309.96 226.392L310.864 225.585L311.734 224.789L312.57 224.007L313.372 223.237L314.14 222.483L314.875 221.745L315.577 221.024L316.245 220.321L316.881 219.637L317.485 218.974L318.057 218.332L318.597 217.713L319.105 217.118L319.582 216.548L320.028 216.003L320.443 215.486L320.828 214.997L321.182 214.537L321.507 214.107L321.802 213.709L322.067 213.344L322.304 213.012L322.511 212.716L322.691 212.455L322.841 212.231L322.964 212.045L323.059 211.899L323.127 211.793L323.167 211.729L323.18 211.707L322.111 212.407L321.044 213.096L319.981 213.774L318.92 214.441L317.862 215.097L316.808 215.743L315.757 216.378L314.708 217.003L313.664 217.617L312.622 218.221L311.585 218.815L310.55 219.398L309.519 219.971L308.492 220.535L307.469 221.088L306.45 221.631L305.434 222.165L304.423 222.688L303.415 223.203L302.412 223.707L301.413 224.202L300.418 224.687L299.427 225.163L298.441 225.63L297.46 226.087L296.483 226.536L295.51 226.975L294.542 227.405L293.579 227.826L292.621 228.238L291.668 228.641L290.72 229.036L289.777 229.422L288.839 229.799L287.906 230.168L286.978 230.529L286.056 230.881L285.139 231.224L284.128 231.647L283.117 232.063L282.109 232.474L281.102 232.879L280.097 233.279L279.093 233.673L278.091 234.061L277.09 234.443L276.091 234.82L275.093 235.191L274.097 235.556L273.102 235.916L272.109 236.27L271.117 236.619L270.127 236.962L269.138 237.3L268.15 237.632L267.164 237.959L266.179 238.28L265.195 238.595L264.213 238.906L263.232 239.21L262.253 239.51L261.274 239.804L260.297 240.092L259.321 240.376L258.346 240.653L257.373 240.926L256.4 241.193L255.429 241.455L254.459 241.712L253.49 241.963L252.523 242.209L251.556 242.45L250.59 242.686L249.626 242.916L248.662 243.142L247.7 243.362L246.738 243.577L245.778 243.787L244.818 243.992L243.86 244.191L242.902 244.386L241.946 244.575L240.99 244.76L240.035 244.939L239.081 245.114L238.128 245.283L237.176 245.448L235.666 245.725L234.16 245.992L232.657 246.247L231.159 246.491L229.666 246.724L228.176 246.946L226.691 247.157L225.21 247.357L223.733 247.547L222.26 247.726L220.792 247.895L219.329 248.054L217.87 248.202L216.415 248.341L214.965 248.469L213.52 248.588L212.079 248.697L210.643 248.796L209.211 248.886L207.785 248.966L206.363 249.037L204.946 249.099L203.534 249.152L202.126 249.196L200.724 249.231L199.327 249.258L197.935 249.275L196.548 249.285L195.166 249.286L193.789 249.278L192.417 249.263L191.05 249.239L189.689 249.207L188.333 249.168L186.983 249.121L185.638 249.066L184.298 249.004L182.964 248.934L181.635 248.858L180.312 248.774L178.994 248.682L177.682 248.584L176.376 248.479L175.075 248.368L173.781 248.25L172.492 248.125L171.208 247.994L169.931 247.856L168.66 247.713L167.394 247.563L166.135 247.408L164.881 247.246L163.634 247.079L162.392 246.906L161.157 246.728L159.928 246.544L158.705 246.356L157.489 246.161L156.279 245.962L155.075 245.758L153.877 245.549L152.686 245.336L151.502 245.117L150.351 244.893L149.206 244.664L148.068 244.431L146.937 244.194L145.812 243.954L144.694 243.709L143.582 243.462L142.478 243.21L141.379 242.955L140.288 242.697L139.203 242.436L138.124 242.171L137.053 241.903L135.988 241.632L134.929 241.358L133.877 241.082L132.832 240.802L131.793 240.52L130.761 240.235L129.736 239.948L128.717 239.658L127.705 239.366L126.699 239.071L125.7 238.775L124.708 238.476L123.722 238.175L122.743 237.873L121.77 237.568L120.804 237.262L119.845 236.954L118.892 236.644L117.946 236.333L117.007 236.021L116.074 235.707L115.148 235.391L114.228 235.075L113.315 234.758L112.409 234.439L111.509 234.12L110.616 233.8L109.729 233.479L108.85 233.157L107.976 232.835L107.109 232.512L106.249 232.189L105.396 231.866L104.549 231.542L103.709 231.218L102.875 230.894L101.921 230.518L100.96 230.136L99.9923 229.746L99.019 229.349L98.0398 228.944L97.0553 228.532L96.0656 228.112L95.0709 227.684L94.0717 227.248L93.0682 226.804L92.0607 226.351L91.0494 225.89L90.0347 225.421L89.0169 224.943L87.9961 224.455L86.9728 223.959L85.9472 223.454L84.9196 222.939L83.8902 222.415L82.8594 221.881L81.8275 221.337L80.7947 220.784L79.7613 220.22L78.7277 219.647L77.239 218.819L75.7505 217.991L74.9648 217.496L74.4272 217.001L72.3198 215.81L70.4681 214.727L68.8801 213.768L67.5634 212.949L66.5258 212.284L65.7751 211.791L65.3189 211.483L65.1652 211.377L65.1789 211.4L65.2203 211.467L65.2897 211.577L65.3873 211.73L65.5135 211.923L65.6686 212.156L65.8528 212.427L66.0665 212.736L66.31 213.081L66.5835 213.461L66.8874 213.875L67.2219 214.322L67.5874 214.8L67.9842 215.308L68.4126 215.846L68.8728 216.411L69.3651 217.003L69.89 217.621L70.4475 218.263L71.0382 218.928L71.6622 219.615L72.3198 220.323L73.0115 221.051L73.7373 221.797L74.4978 222.561L75.2931 223.341L76.1235 224.136L76.9894 224.944L77.8911 225.765L78.8288 226.598L79.8029 227.44L80.8136 228.292L81.8613 229.152L82.9462 230.018L84.0687 230.89L85.229 231.767L86.4275 232.646L87.6645 233.527L88.9402 234.41L90.2549 235.292L91.609 236.172L93.0028 237.049L94.4364 237.923L95.9104 238.792L97.4249 239.654L98.9802 240.509L100.577 241.355L102.215 242.192L103.894 243.017L105.616 243.831L107.38 244.631L109.187 245.416L111.037 246.186L112.929 246.939L114.866 247.674L116.846 248.389L118.871 249.084L120.94 249.758L123.053 250.409L121.942 251.814L120.816 253.233L119.68 254.661L118.538 256.092L117.394 257.521L116.254 258.943L115.122 260.353L114.001 261.745L112.897 263.114L111.814 264.455L110.756 265.762L109.727 267.031L108.733 268.256L107.778 269.432L106.865 270.554L106.001 271.616L105.188 272.613L104.431 273.54L103.735 274.392L103.105 275.163L102.544 275.848L102.057 276.443L101.649 276.941L101.324 277.337L101.086 277.627L100.94 277.804L100.89 277.865L97.4434 277.72L94.0646 277.509L90.7534 277.234L87.5094 276.896L84.3322 276.498L81.2215 276.042L78.1768 275.531L75.1976 274.966L72.2835 274.351L69.4342 273.686L66.6492 272.975L63.928 272.22L61.2703 271.423L58.6757 270.586L56.1436 269.711L53.6738 268.801L51.2658 267.858L48.9191 266.884L46.6333 265.882L44.4081 264.853L42.2429 263.8L40.1374 262.726L38.0912 261.632L36.1038 260.52L34.1748 259.393L32.3038 258.254L30.4904 257.104L28.7341 255.945L27.0346 254.781L25.3913 253.612L23.804 252.442L22.2721 251.273L20.7953 250.106L19.3731 248.945L18.0051 247.79L16.6908 246.646L15.43 245.513L14.2221 244.395L13.0667 243.293L11.9634 242.209L10.9118 241.146L9.9114 240.107L8.96189 239.092L8.06279 238.106L7.2137 237.149L6.41418 236.224L5.66381 235.333L4.96218 234.479L4.30887 233.664L3.70345 232.89L3.14551 232.16L2.63462 231.474L2.17036 230.837L1.75231 230.25L1.38005 229.714L1.05317 229.234L0.771233 228.81L0.533825 228.445L0.340526 228.142L0.190915 227.902L0.0845707 227.728L0.0210726 227.622L0 227.586L0.0356231 222.529L0.140969 217.505L0.31375 212.514L0.551682 207.559L0.852479 202.64L1.21385 197.76L1.63352 192.919L2.10919 188.121L2.63859 183.365L3.21942 178.655L3.84939 173.991L4.52623 169.374L5.24765 164.808L6.01136 160.292L6.81507 155.829L7.6565 151.421L8.53336 147.068L9.44337 142.773L10.3842 138.537L11.3537 134.361L12.3494 130.248L13.3692 126.199L14.4106 122.215L15.4715 118.298L16.5495 114.45L17.6424 110.672L18.7479 106.965L19.8636 103.333L20.9874 99.7746L22.1168 96.2932L23.2497 92.8899L24.3837 89.5663L25.5166 86.324L26.6461 83.1646L27.7698 80.0897L28.8856 77.1008L29.9911 74.1996L31.0839 71.3877L32.162 68.6665L33.2229 66.0378L34.2643 63.5031L35.284 61.064L36.2798 58.722L37.2492 56.4789L38.1901 54.3361L39.1001 52.2952L39.977 50.3578L40.8184 48.5256L41.6221 46.8001L42.3858 45.1828L43.1072 43.6754L43.7841 42.2795L44.414 40.9967L44.9949 39.8285L45.5243 38.7765L45.9999 37.8424L46.4196 37.0276L46.781 36.3339L47.0818 35.7627L47.3197 35.3157L47.4925 34.9944L47.5978 34.8005L47.6335 34.7355L49.8998 33.0619L52.1616 31.4429L54.4178 29.8776L56.6675 28.3651L58.9095 26.9045L61.1429 25.4949L63.3665 24.1353L65.5795 22.8249L67.7806 21.5628L69.969 20.348L72.1436 19.1798L74.3033 18.057L76.4472 16.9789L78.5741 15.9446L80.6831 14.953L82.7731 14.0035L84.8431 13.0949L86.892 12.2265L88.9189 11.3973L90.9226 10.6064L92.9023 9.85288L94.8567 9.1359L96.785 8.45451L98.686 7.80782L100.559 7.19492L102.402 6.6149L104.215 6.06687L105.997 5.54991L107.747 5.06311L109.462 4.60559L111.144 4.17642L112.79 3.77471L114.399 3.39955L115.971 3.05003L117.505 2.72526L118.998 2.42432L120.452 2.14632L121.863 1.89034L123.232 1.65548L124.557 1.44083L125.837 1.2455L127.071 1.06858L128.259 0.90916L129.398 0.766335L130.489 0.639203L131.53 0.526859L132.52 0.428397L133.458 0.342913L134.343 0.269502L135.173 0.207259L135.949 0.155279L136.669 0.112657L137.331 0.0784887L137.935 0.0518691L138.48 0.0318933L138.965 0.0176563L139.388 0.00825331L139.75 0.00277951L140.047 0.00033003L140.281 5.68434e-14L140.449 0.000884565L140.55 0.00207887L140.584 0.00267805L143.893 3.9723L141.082 4.798L138.319 5.63636L135.604 6.48654L132.938 7.3477L130.32 8.21899L127.75 9.09958L125.227 9.98862L122.753 10.8853L120.326 11.7887L117.946 12.6981L115.614 13.6125L113.329 14.5312L111.091 15.4533L108.901 16.3779L106.757 17.3043L104.66 18.2316L102.61 19.1589L100.607 20.0854L98.6498 21.0103L96.7392 21.9326L94.8749 22.8517L93.0567 23.7666L91.2846 24.6764L89.5585 25.5805L87.8782 26.4778L86.2436 27.3676L84.6547 28.249L83.1113 29.1212L81.6132 29.9834L80.1604 30.8346L78.7528 31.6742L77.3903 32.5011L76.0727 33.3146L74.8 34.1139L73.572 34.898L72.3886 35.6662L71.2497 36.4176L70.1552 37.1514L69.1049 37.8667L68.0989 38.5627L67.1369 39.2386L66.2189 39.8934L65.3447 40.5264L64.5142 41.1368L63.7273 41.7236L62.984 42.2861L62.284 42.8233L61.6273 43.3345L61.0138 43.8189L60.4434 44.2755L59.9159 44.7035L59.4312 45.1021L58.9893 45.4705L58.59 45.8078L58.2332 46.1132L57.9188 46.3858L57.6466 46.6247L57.4167 46.8293L57.2288 46.9985L57.0828 47.1316L56.9787 47.2277L56.9163 47.2859L56.8955 47.3055L56.9557 47.2729L57.1347 47.1763L57.4307 47.0178L57.8416 46.7994L58.3653 46.5231L58.9998 46.1909L59.7431 45.805L60.5932 45.3672L61.5481 44.8797L62.6056 44.3444L63.7639 43.7634L65.0208 43.1388L66.3744 42.4724L67.8227 41.7664L69.3635 41.0228L70.9948 40.2436L72.7148 39.4308L74.5212 38.5865L76.4122 37.7126L78.0921 36.9808L79.7607 36.2657L81.418 35.5673L83.0635 34.8853L84.6972 34.2195L86.3188 33.5698L87.928 32.936L89.5247 32.3178L91.1086 31.7151L92.6795 31.1277L94.2372 30.5553L95.7814 29.9979L97.312 29.4552L98.8286 28.927L100.331 28.4132L101.819 27.9135L103.293 27.4278L104.752 26.9558L106.196 26.4974L107.625 26.0524L109.038 25.6205L110.435 25.2017L111.817 24.7957L113.183 24.4023L114.532 24.0213L115.864 23.6526L117.18 23.2959L118.479 22.9511L119.761 22.6179L121.025 22.2963L122.272 21.9859L123.5 21.6866L124.711 21.3982L125.903 21.1205L127.077 20.8534L128.231 20.5966L129.367 20.3499L130.484 20.1132L131.581 19.8862L132.659 19.6688L133.716 19.4609L134.754 19.262L135.771 19.0722L136.768 18.8912L137.743 18.7189L138.698 18.5549L139.632 18.3992L140.544 18.2516L141.435 18.1118L142.303 17.9796L143.15 17.855L143.974 17.7376L144.775 17.6273L145.554 17.524L146.31 17.4273L147.043 17.3372L147.752 17.2534L148.437 17.1757L149.099 17.104L149.736 17.0381L150.349 16.9777L150.938 16.9228L151.502 16.873L152.938 16.63L154.313 16.4181L155.688 16.2682L157.125 16.2113L158.088 16.0868L159.055 15.9653L160.026 15.8469L161 15.7316L161.979 15.6195L162.961 15.5104L163.947 15.4046L164.937 15.302L165.93 15.2026L166.927 15.1066L167.928 15.0138L168.932 14.9244L169.94 14.8384L170.951 14.7558L171.966 14.6766L172.984 14.6009L174.005 14.5287L175.03 14.4601L176.058 14.395L177.089 14.3335L178.124 14.2757L179.162 14.2215L180.202 14.1711L181.246 14.1243L182.293 14.0814L183.343 14.0422L184.396 14.0068L185.452 13.9753L186.511 13.9477L187.572 13.924L188.637 13.9043L189.704 13.8886L190.774 13.8768L191.846 13.8691L192.922 13.8655L193.999 13.866L195.08 13.8707L196.163 13.8795L197.248 13.8926L198.336 13.9098L199.426 13.9314L200.519 13.9572L201.614 13.9874L202.711 14.0219L203.811 14.0609L204.913 14.1042L206.017 14.1521L207.123 14.2044L208.231 14.2612L209.341 14.3226L210.454 14.3886L211.568 14.4592L212.684 14.5345L213.802 14.6144L214.922 14.6991L216.044 14.7885L217.167 14.8827L218.292 14.9817L219.419 15.0855L220.548 15.1942L221.678 15.3078L222.81 15.4264L223.943 15.5499L225.441 15.7274L226.943 15.9136L228.448 16.1084L229.956 16.312L231.468 16.5245L232.983 16.7459L234.502 16.9765L236.023 17.2162L237.548 17.4652L239.076 17.7235L240.607 17.9913L242.141 18.2686L243.678 18.5556L245.218 18.8523L246.761 19.1588L248.307 19.4753L249.856 19.8018L251.407 20.1384L252.962 20.4853L254.519 20.8424L256.079 21.21L257.641 21.5881L259.207 21.9767L260.774 22.3761L262.345 22.7862L263.917 23.2072L265.493 23.6392L267.07 24.0823L268.65 24.5365L270.233 25.002L271.818 25.4789L273.405 25.9672L274.994 26.467L276.585 26.9785L278.179 27.5018L279.775 28.0368L281.372 28.5839L282.972 29.1429L284.574 29.714L286.178 30.2974L287.783 30.8931L289.391 31.5012L291 32.1218L292.611 32.755L294.224 33.4008L295.839 34.0595L297.455 34.731L299.073 35.4156L300.693 36.1132L302.314 36.8239L303.936 37.548L305.56 38.2853L307.186 39.0362L308.813 39.8006L310.441 40.5786L312.07 41.3704L313.701 42.176L315.333 42.9955L316.966 43.8291L318.601 44.6768L320.236 45.5387L321.873 46.4149L323.51 47.3055L323.491 47.2869L323.431 47.2316L323.332 47.1403L323.193 47.0138L323.015 46.8529L322.796 46.6585L322.537 46.4312L322.238 46.1718L321.899 45.8811L321.519 45.56L321.099 45.2091L320.639 44.8293L320.138 44.4213L319.596 43.9859L319.013 43.5239L318.389 43.036L317.724 42.5231L317.018 41.9859L316.271 41.4252L315.483 40.8418L314.653 40.2365L313.782 39.61L312.869 38.963L311.914 38.2965L310.918 37.6111L309.879 36.9077L308.799 36.187L307.677 35.4498L306.512 34.6969L305.305 33.929L304.056 33.147L302.764 32.3515L301.43 31.5435L300.053 30.7236L298.634 29.8927L297.171 29.0514L295.666 28.2007L294.118 27.3413L292.526 26.4739L290.891 25.5993L289.213 24.7184L287.492 23.8318L285.727 22.9404L283.918 22.045L282.066 21.1463L280.17 20.245L278.23 19.3421L276.246 18.4382L274.218 17.5341L272.146 16.6307L270.03 15.7286L267.869 14.8287L265.663 13.9318L263.414 13.0385L261.119 12.1498L258.78 11.2664L256.396 10.389L253.967 9.51842L251.493 8.65547L248.974 7.80091L246.409 6.95552L243.8 6.12008L241.144 5.29536L245.775 0.00267805L245.81 0.00207887L245.911 0.000884565L246.079 0L246.313 0.00033003L246.61 0.00277951L246.971 0.00825331L247.395 0.0176563L247.88 0.0318933L248.425 0.0518691L249.029 0.0784887L249.691 0.112657L250.411 0.155279L251.187 0.207259L252.017 0.269502L252.902 0.342913L253.84 0.428397L254.83 0.526859L255.871 0.639203L256.962 0.766335L258.101 0.90916L259.289 1.06858L260.523 1.2455L261.803 1.44083L263.128 1.65548L264.497 1.89034L265.908 2.14632L267.361 2.42432L268.855 2.72526L270.389 3.05003L271.96 3.39955L273.57 3.77471L275.216 4.17642L276.898 4.60559L278.613 5.06311L280.363 5.54991L282.145 6.06687L283.958 6.6149L285.801 7.19492L287.674 7.80782L289.575 8.45451L291.503 9.1359L293.458 9.85288L295.437 10.6064L297.441 11.3973L299.468 12.2265L301.517 13.0949L303.587 14.0035L305.677 14.953L307.786 15.9446L309.913 16.9789L312.057 18.057L314.216 19.1798L316.391 20.348L318.579 21.5628L320.781 22.8249L322.993 24.1353L325.217 25.4949L327.45 26.9045L329.692 28.3651L331.942 29.8776L334.198 31.4429L336.46 33.0619L338.726 34.7355L338.762 34.8005L338.867 34.9944L339.04 35.3157L339.278 35.7627L339.579 36.3339L339.94 37.0276L340.36 37.8424L340.836 38.7765L341.365 39.8285L341.946 40.9967L342.576 42.2795L343.253 43.6754L343.974 45.1828L344.738 46.8001L345.542 48.5256L346.383 50.3578L347.26 52.2952L348.17 54.3361L349.111 56.4789L350.081 58.722L351.076 61.064L352.096 63.5031L353.138 66.0378L354.199 68.6665L355.277 71.3877L356.37 74.1996L357.475 77.1008L358.591 80.0897L359.715 83.1646L360.844 86.324L361.977 89.5663L363.111 92.8899L364.244 96.2932L365.374 99.7746L366.497 103.333L367.613 106.965L368.719 110.672L369.812 114.45L370.89 118.298L371.951 122.215L372.992 126.199L374.012 130.248L375.008 134.361L375.977 138.537L376.918 142.773L377.828 147.068L378.705 151.421L379.547 155.829L380.35 160.292L381.114 164.808L381.835 169.374L382.512 173.991L383.142 178.655L383.723 183.365L384.253 188.121L384.728 192.919L385.148 197.76L385.509 202.64L385.81 207.559L386.048 212.514L386.221 217.505L386.326 222.529L386.362 227.586L386.341 227.622L386.276 227.728L386.169 227.902L386.018 228.142L385.822 228.445L385.582 228.81L385.297 229.234L384.967 229.714L384.591 230.25L384.169 230.837L383.7 231.474L383.185 232.16L382.622 232.89L382.011 233.664L381.352 234.479L380.645 235.333L379.888 236.224L379.082 237.149L378.227 238.106L377.321 239.092L376.364 240.107L375.357 241.146L374.298 242.209L373.187 243.293L372.024 244.395L370.809 245.513L369.54 246.646L368.218 247.79L366.842 248.945L365.412 250.106L363.928 251.273L362.388 252.442L360.793 253.612L359.141 254.781L357.434 255.945L355.67 257.104L353.849 258.254L351.97 259.393L350.034 260.52L348.039 261.632L345.985 262.726L343.873 263.8L341.701 264.853L339.469 265.882L337.176 266.884L334.823 267.858L332.409 268.801L329.934 269.711L327.396 270.586L324.796 271.423L322.133 272.22L319.407 272.975L316.618 273.686L313.765 274.351L310.847 274.966L307.864 275.531L304.817 276.042L301.703 276.498L298.524 276.896L295.279 277.234L291.966 277.509L288.587 277.72L285.139 277.865"/>
  <ellipse id="shape1" transform="translate(135.581, 86.3725)" rx="4.32000000000001" ry="11.88" cx="4.32000000000001" cy="11.88" fill="none" stroke="#53c81d" stroke-width="0.72" stroke-linecap="square" stroke-linejoin="bevel"/>
  <ellipse id="shape2" transform="matrix(0.93708809864243 0 0 0.953882287592213 131.992567674844 89.962872667428)" rx="37.08" ry="53.64" cx="37.08" cy="53.64" fill="#ffffff" fill-rule="evenodd" stroke="#ffffff" stroke-width="0.72" stroke-linecap="square" stroke-linejoin="bevel"/>
  <ellipse id="shape01" transform="matrix(0.937088131789865 0 0 0.953882290317176 188.421778204463 87.766253947387)" rx="37.08" ry="53.64" cx="37.08" cy="53.64" fill="#ffffff" fill-rule="evenodd" stroke="#ffffff" stroke-width="0.72" stroke-linecap="square" stroke-linejoin="bevel"/>
  <ellipse id="shape3" transform="matrix(0.931023948612167 0 0 0.873484866158844 155.539232338448 118.727985938025)" rx="16.2" ry="24.48" cx="16.2" cy="24.48" fill="#000000" fill-rule="evenodd" stroke="#000000" stroke-opacity="0" stroke-width="0" stroke-linecap="square" stroke-linejoin="bevel"/>
  <ellipse id="shape011" transform="matrix(0.931023903312022 0 0 0.873484905929784 204.214801233342 117.549589502839)" rx="16.2" ry="24.48" cx="16.2" cy="24.48" fill="#000000" fill-rule="evenodd" stroke="#000000" stroke-opacity="0" stroke-width="0" stroke-linecap="square" stroke-linejoin="bevel"/>
  <circle id="shape4" transform="translate(209.697324640799, 127.311581164501)" r="5.75999999999999" cx="5.75999999999999" cy="5.75999999999999" fill="#ffffff" fill-rule="evenodd" stroke="#000000" stroke-opacity="0" stroke-width="0" stroke-linecap="square" stroke-linejoin="bevel"/>
  <ellipse id="shape02" transform="matrix(0.9999999660633 0 0 1.00000004571304 161.852788433005 129.436405708478)" rx="4.86411266443992" ry="4.95055419209279" cx="4.86411266443992" cy="4.95055419209279" fill="#ffffff" fill-rule="evenodd" stroke="#000000" stroke-opacity="0" stroke-width="0" stroke-linecap="square" stroke-linejoin="bevel"/>
  <path id="shape5" transform="translate(139.72409432936, 70.65877336051)" sodipodi:type="arc" sodipodi:rx="28.8" sodipodi:ry="35.28" sodipodi:cx="24.4023472359807" sodipodi:cy="35.2847525371157" sodipodi:start="3.70150113011473" sodipodi:end="5.21551105573732" sodipodi:open="true" d="M38.2886 4.3766C24.9102 -4.6431 8.11046 0.696947 3.55271e-15 16.5472" fill="none" stroke="#000000" stroke-width="7.92" stroke-linecap="round" stroke-linejoin="bevel"/>
  <path id="shape03" transform="matrix(1.00000002822517 0 0 1.00000002693094 215.778143116646 73.288852546213)" sodipodi:type="arc" sodipodi:rx="25.6147096104656" sodipodi:ry="31.3780192728197" sodipodi:cx="12.4273052168592" sodipodi:cy="31.3785754308321" sodipodi:start="4.20583959878283" sodipodi:end="5.46502825159021" sodipodi:open="true" d="M29.9367 8.47616C21.8196 -0.836283 9.72452 -2.66863 0 3.94089" fill="none" stroke="#000000" stroke-width="7.92" stroke-linecap="round" stroke-linejoin="bevel"/>
  <path id="shape6" transform="translate(143.6334156071, 199.42301065455)" sodipodi:type="arc" sodipodi:rx="36.3225407757708" sodipodi:ry="36.5553775756154" sodipodi:cx="27.3296481203513" sodipodi:cy="-24.0786109816498" sodipodi:start="1.45186164279258" sodipodi:end="2.4225181265914" sodipodi:open="true" d="M0 0C7.89668 9.07814 19.7357 13.6501 31.6395 12.2185" fill="none" stroke="#000000" stroke-width="8.64" stroke-linecap="round" stroke-linejoin="bevel"/>
 </g>
</svg>
